<svg width="598.72" height="303.82" style="" version="1.1" xmlns="http://www.w3.org/2000/svg">
 <title>Basement</title>
 <!-- Created with Vector Paint - http://www.vectorpaint.yaks.com/ https://chrome.google.com/webstore/detail/hnbpdiengicdefcjecjbnjnoifekhgdo -->
 <rect id="backgroundrect" width="100%" height="100%" display="none" fill="#b3b3b3"/>
 <g class="currentLayer" style="">
  <text x="280.81912" y="54.180935" fill="#000000" font-family="sans-serif" font-size="20px" style="font-variant-caps:normal;font-variant-east-asian:normal;font-variant-ligatures:normal;font-variant-numeric:normal;line-height:1.25" xml:space="preserve"><tspan x="280.81912" y="54.180935" font-family="sans-serif" font-size="20px" style="font-variant-caps:normal;font-variant-east-asian:normal;font-variant-ligatures:normal;font-variant-numeric:normal">Stand 2</tspan></text>
  <rect id="wall" class="" x="5.9429" y="5.4102" width="586" height="293" color="rgb(0, 0, 0)" fill="none" stroke="#000" stroke-dashoffset="" stroke-linejoin="round" stroke-width="2"/>
  <rect class="" x="5.9429" y="5.4102" width="586" height="293" color="rgb(0, 0, 0)" fill="none" stroke="#000" stroke-dashoffset="" stroke-linejoin="round" stroke-width="2"/>
  <rect id="Stand1 rect" class="" x="100.23" y="14.804" width="130.96" height="63.604" ry="7.7937" color="#000000" fill="none" stroke="#000" stroke-dashoffset="" stroke-linejoin="round" endhour="18:30" keys="Mot-clé 1,Mot-clé 2, Mot-clé 3,Mot-clé 4" respo="Mr Rect" resume="Stand rectangulaire." starthour="10:30"/>
  <path id="Stand4 rond" class="" d="m244.96 180.62c0-29.658 24.481-53.681 54.704-53.681s54.704 24.023 54.704 53.681-24.481 53.681-54.704 53.681-54.704-24.023-54.704-53.681z" color="#000000" fill="none" marker-end="" marker-mid="" marker-start="" stroke="#000" stroke-dashoffset="" stroke-linejoin="round" endhour="18:30" keys="Mot-clé 3,Mot-clé 4,Mot-clé 5" respo="Mr Rond" resume="Stand rond." starthour="10:30"/>
  <path id="Stand3 rond" class="" d="m108.96 180.62c0-29.658 24.481-53.681 54.704-53.681s54.704 24.023 54.704 53.681-24.481 53.681-54.704 53.681-54.704-24.023-54.704-53.681z" color="#000000" fill="none" marker-end="" marker-mid="" marker-start="" stroke="#000" stroke-dashoffset="" stroke-linejoin="round" endhour="19:30" keys="Mot-clé 3,Mot-clé 4,Mot-clé 5" respo="Mme Ronde" resume="Stand rond." starthour="13:30"/>
  <rect id="Stand2 rect" class="" x="252.93" y="15.885" width="130.96" height="63.604" ry="7.7937" color="#000000" fill="none" stroke="#000" stroke-dashoffset="" stroke-linejoin="round" endhour="15:20" keys="Mot-clé 1,Mot-clé 2, Mot-clé 3,Mot-clé 4" respo="Mme Rect" resume="Stand rectangulaire." starthour="11:45"/>
  <path d="m73.82 222.33h-59.247zm-0.08576-8.4684h-59.247zm0.44307-8.0835h-59.247zm-0.08575-8.4684h-59.247zm-0.28585-8.0171h-59.247zm-0.08576-8.4551h-59.247zm0.44307-8.0967h-59.247zm-0.08576-8.4551h-59.247zm-0.27156-8.5215h-59.247zm-0.08576-8.4684h-59.247zm0.44307-8.0834h-59.247zm-0.08576-8.4684h-59.247zm-0.28584-8.0171h-59.247zm-0.08576-8.4551h-59.247zm0.44308-8.0967h-59.247zm-0.08576-8.4551h-59.247zm1.5e-5 -8.5082v141.12h-59.772v-141.12z" color="#000000" fill="none" stroke="#000"/>
  <text x="127.06145" y="53.66151" fill="#000000" font-family="sans-serif" font-size="20px" style="font-variant-caps:normal;font-variant-east-asian:normal;font-variant-ligatures:normal;font-variant-numeric:normal;line-height:1.25" xml:space="preserve"><tspan x="127.06145" y="53.66151" font-family="sans-serif" font-size="20px" style="font-variant-caps:normal;font-variant-east-asian:normal;font-variant-ligatures:normal;font-variant-numeric:normal">Stand 1</tspan></text>
  <text x="123.77205" y="185.82794" fill="#000000" font-family="sans-serif" font-size="20px" style="font-variant-caps:normal;font-variant-east-asian:normal;font-variant-ligatures:normal;font-variant-numeric:normal;line-height:1.25" xml:space="preserve"><tspan x="123.77205" y="185.82794" font-family="sans-serif" font-size="20px" style="font-variant-caps:normal;font-variant-east-asian:normal;font-variant-ligatures:normal;font-variant-numeric:normal">Stand 3</tspan></text>
  <text x="262.03696" y="187.32899" fill="#000000" font-family="sans-serif" font-size="20px" style="font-variant-caps:normal;font-variant-east-asian:normal;font-variant-ligatures:normal;font-variant-numeric:normal;line-height:1.25" xml:space="preserve"><tspan x="262.03696" y="187.32899" font-family="sans-serif" font-size="20px" style="font-variant-caps:normal;font-variant-east-asian:normal;font-variant-ligatures:normal;font-variant-numeric:normal">Stand 4</tspan></text>
  <rect id="wall-test" class="" x="371.32" y="99.333" width="185.03" height="54.336" color="#000000" fill="none" stroke="#000" stroke-dashoffset="" stroke-linejoin="round" stroke-width=".53869"/>
 </g>
</svg>
